<?xml version="1.0" encoding="utf-8"?>
<!-- Generator: Adobe Illustrator 19.0.1, SVG Export Plug-In . SVG Version: 6.00 Build 0)  -->
<svg version="1.1" id="Layer_1" xmlns="http://www.w3.org/2000/svg" xmlns:xlink="http://www.w3.org/1999/xlink" x="0px" y="0px"
	 viewBox="0 0 176.2 73.3" style="enable-background:new 0 0 176.2 73.3;" xml:space="preserve">
<g id="Brown_University">
	<g>
		<path d="M40.3,16.9c-0.9,0.2-1.9,0.4-3.2,0.9c-1.7,0.7-5.1,0.8-6.4,0.8c-1.3,0-1.8,0.6-2.2,0.5c0-0.7-0.4-1.7-0.4-1.7
			c0.4-0.2,1.6-0.6,2.7-0.6c1.4,0.1,4.1,0.2,5.4,0c0.7-0.1,3.1-0.1,3.5-0.1c0.3,0,0.7,0.1,0.8,0.1C41,16.8,40.6,16.9,40.3,16.9
			L40.3,16.9z M32.3,22.1c1.4,0.6,1.7,2.1,2.2,2.9c0.1,0.5-1.5,0.6-2.3,0.2C31.9,25,31,24,30.7,23.6c-0.3-0.4-0.8-0.6-1-0.3
			c-0.1,0.2,0,0.4,0.3,0.6c0.3,0.2,0.9,1,1,1.2c-0.1,0.3-1.2,0.7-2.1-0.2c-0.4-0.4-1.2-2-1.5-2.6C29,21.6,30.9,21.5,32.3,22.1
			L32.3,22.1z M37.3,21.7c3,0.3,3.7,2.2,3.4,2.8c-0.3,0.6-2.1,1.3-4.8,0.5c-0.9-0.4-1.6-2.5-1.9-2.8C33.9,22.1,35.6,21.5,37.3,21.7
			L37.3,21.7z M22.4,25.1c-0.9-0.4-1.6-2.5-1.9-2.8c-0.1-0.1,1.6-0.7,3.4-0.6c3,0.3,3,2.1,3.7,3C27.9,25.1,25.2,25.9,22.4,25.1
			L22.4,25.1z M18.7,25.2c-0.3-0.2-1.1-1.3-1.4-1.6c-0.3-0.4-0.9-0.7-1.1-0.4c-0.1,0.2,0,0.4,0.3,0.6c0.3,0.2,1,1.1,1.1,1.3
			c-0.1,0.3-1.4,0.8-2.2-0.2c-0.4-0.5-1.2-2-1.7-2.6c1.7-0.6,3.7-0.8,5.1-0.2c1.4,0.6,1.6,2.1,2.2,2.9
			C21.1,25.4,19.5,25.7,18.7,25.2L18.7,25.2z M8.9,25C8,24.6,7.3,22.5,7,22.2c-0.1-0.1,1.6-0.7,3.4-0.6c3,0.3,3,2.1,3.7,3
			C14.4,25,11.7,25.8,8.9,25L8.9,25z M5.4,25c-1-0.7-1.7-2.1-2.5-1.9c-0.3,0.1-0.3,0.6,0.1,0.7c0.3,0,0.8,0.8,1.1,1.1
			c-0.1,0.4-1.1,0.8-2.2,0.2c-0.5-0.3-1.3-1.3-0.6-2.5c0.4-0.6,1.4-1,2.7-1c2.4,0.1,3.1,2.8,3.7,3.3C7.7,25.2,6.4,25.7,5.4,25
			L5.4,25z M11.2,18.8c-0.2-0.1-1.6-0.6-2.5-0.5c-1.7,0.1-3.9-0.4-5-0.8c-0.3-0.1-2.6-0.3-0.3-0.3c0.8,0,1.7-0.2,3.2,0
			c0.9,0.1,2.4,0.3,4.8,0.1c1.1-0.1,2,0.3,2.5,0.7c-0.1,0.3-0.3,1.2-0.3,1.4C13,19.4,11.9,19,11.2,18.8L11.2,18.8z M10,13.3
			c0.2-0.2,0.4-0.7,0.5-1c0.1,0.1,0.2,0.1,0.2,0.2c0,0,0.7,0.5,1.1,0.6c1.7,0.8,2.8,1,4,2c-0.4,0.5-0.9,1-1.1,1.5
			C12.2,15.8,10.2,13.6,10,13.3L10,13.3z M9,12.9c-1,0.8-2.7,0.9-3.7,0.5c-0.1-0.1-0.3,0-0.4,0.1C4.2,14,3.4,14,2.8,13.6
			c-0.6-0.4-0.9-1.2-0.8-1.9c0.2-1,1.4-1.6,3.2-1.8c0.2,0,0.3-0.2,0.4-0.3C5.9,8,6.9,7.7,7.9,7.5l0.4-0.1c0.2-0.1,0.3-0.2,0.3-0.5
			c0-0.3,0.2-1.3,1.1-2c1-0.8,2.5-0.8,4.3-0.1c0.1,0,0.2,0,0.3,0c0.1,0,0.2-0.1,0.2-0.2C15.1,3.3,16,2.4,17.2,2
			c1.2-0.4,2.6-0.1,3.7,0.7c0.1,0.1,0.3,0.1,0.5,0c1.1-0.7,2.4-0.9,3.6-0.6c1.3,0.4,2.5,1.4,3.3,2.9c0.1,0.2,0.3,0.3,0.5,0.2
			c1.3-0.4,2.3-0.4,2.9,0c0.6,0.4,0.9,1.1,0.9,1.6c0,0.1,0.1,0.2,0.2,0.3c0.1,0.1,0.2,0.1,0.4,0c1.3-0.4,2.7-0.4,3.6,0.2
			c0.6,0.4,1,0.9,1.1,1.6c0,0.2,0.2,0.3,0.4,0.4c1.2,0.1,2,0.6,2.3,1.4c0.2,0.7,0,1.6-0.6,2.1c-0.9,0.7-2.3,0.7-3.8-0.1
			c-0.1-0.1-0.3-0.1-0.4,0c-1.2,0.6-2.3,0.7-3.4,0.1c-1.2-0.6-1.9-1.9-2-2.5c0-0.1-0.1-0.2-0.2-0.3c-0.1-0.1-0.2-0.1-0.3-0.1
			c-0.9,0.1-3.7,0.4-4.3-2.3c0-0.1-0.1-0.2-0.2-0.3c-0.1-0.1-0.3,0-0.4,0.1c-1.8,1.2-3.7,1.1-5.4-0.3C19.3,7,19,7,18.9,7.1
			c-2,2-3.6,1.9-4.4,1.5c-0.2-0.1-0.4,0-0.5,0.2c-0.8,1.2-2.4,1.5-3.6,1.1c-0.1,0-0.3-0.1-0.4,0c-0.1,0.1-0.2,0.2-0.1,0.4
			C10,11.4,9.7,12.3,9,12.9L9,12.9z M22.9,11.9c-0.2,0.5-0.3,0.7-0.3,1c0.1-1-0.1-2.5-0.4-3.8c0.9,0,1.8-0.2,2.7-0.7
			c0.1,0.2,0.2,0.4,0.3,0.6C24.6,9.4,23.4,10.7,22.9,11.9L22.9,11.9z M27.1,10.9c0-0.1,0.1-0.1,0.1-0.2c0.7,0.2,1.5,0.3,2.3,0.2
			c0.1,0.3,0.2,0.5,0.4,0.8c0,0,0,0,0,0c-0.4,0.2-1.6,1-3.3,2c-0.4,0.2-0.7,0.5-0.9,0.6c0.2-0.3,0.4-0.6,0.6-1
			C26.6,12.6,26.5,11.9,27.1,10.9L27.1,10.9z M26.1,11.1C25.7,12,25.9,13,24.9,14c-0.1-0.1-1.1-0.6-1.5-0.7c0.2-1.3,1.4-2.9,2.2-3.6
			c0.2,0.3,0.6,0.5,0.9,0.7C26.4,10.5,26.2,10.8,26.1,11.1L26.1,11.1z M20,11c0.1-1.3,0.3-2.1,0.4-2.3C20.7,8.9,21,9,21.3,9
			c0.2,0.5,0.7,2.6,0.5,3.9c-0.6-0.1-1.2,0-1.6,0C20,12.7,20,11.7,20,11L20,11z M21,13.6c3.8,0,6.8,3,6.8,6.8c0,0.3,0,0.6-0.1,1
			c-0.4,0.1-0.8,0.3-1.2,0.5c-2-1.1-4.6-1.1-6.5,0c-1.2-0.9-3.7-1-5.7-0.5c-0.1-0.4-0.1-0.7-0.1-0.9C14.2,16.6,17.3,13.6,21,13.6
			L21,13.6z M17.4,11.8c0.5,0.6,0.9,1.4,1,1.5c-0.4,0.1-1.1,0.5-1.5,0.8c-0.8-0.8-1.4-3.2-1.8-3.9C15,10,14.9,9.8,14.8,9.7
			c0.3,0.1,0.7,0.1,0.9,0.1C15.8,9.9,16.5,10.6,17.4,11.8L17.4,11.8z M19.2,12.9L19.2,12.9c0,0.1-0.6-0.8-0.6-1
			c-0.2-0.3-0.5-0.6-0.8-1c-0.5-0.6-0.9-1-1.2-1.4c0.8-0.2,1.7-0.6,2.7-1.6c0.1,0.1,0.2,0.1,0.3,0.2c-0.1,0.3-0.1,0.6-0.1,0.8
			c-0.2,1.2-0.2,2.2-0.3,2.6C19.1,12,19.1,12.6,19.2,12.9L19.2,12.9z M10.7,10.9c1.1,0.2,2.4-0.1,3.3-0.9c1.1,1.8,1.2,3.5,2.3,4.6
			c-1.4-1.3-2.6-1.3-4.6-2.4c-0.3-0.2-0.9-0.5-1-0.6c0,0,0,0,0,0c0-0.2,0-0.3,0-0.5C10.7,11,10.7,11,10.7,10.9L10.7,10.9z
			 M29.5,14.2c-1.3,1.5-2,2.1-2.2,2.1c-0.3-0.5-0.8-1.1-1.2-1.4c0.5-0.5,2.5-1.5,3.5-2.2c0.1-0.1,0.6-0.4,0.7-0.5
			c0.2,0.3,0.5,0.6,0.9,0.8C30.4,13.5,29.9,13.7,29.5,14.2L29.5,14.2z M42.7,16.3c-0.2-0.2-2.8-0.5-3.3-0.5c-0.4,0-2.6,0-3.5,0.2
			c-1.3,0.2-3.7,0.2-5.4,0c-0.6-0.1-1.3,0.1-1.9,0.3c0.1-0.1,0.2-0.2,0.4-0.4c0.5-0.5,1.1-1.5,2.1-2c0.3-0.1,0.5-0.3,0.7-0.4
			c0.9,0.4,2.2,0.7,3.9-0.1c2.5,1.3,4,0.4,4.5,0c0.6-0.5,1-1.4,1-2.2c0-0.3,0-0.6-0.1-0.8c-0.4-1.1-1.4-1.8-2.7-1.9
			c-0.1-0.3-0.2-0.6-0.4-0.8c0.2-0.2,0.3-0.4,0.4-0.5c0.1-0.1,0.5-0.8-0.6-0.3c-0.1,0-0.2,0.1-0.3,0.2c-0.2-0.2-0.3-0.3-0.5-0.4
			c-1-0.6-2.4-0.7-3.9-0.3c-0.2-0.8-0.6-1.4-1.2-1.8c-0.6-0.4-1.4-0.5-2.4-0.4c0.1-0.1,0.1-0.3,0.2-0.4c0.4-0.9,0.2-1.1-0.2-0.7
			c-0.5,0.4-0.8,0.8-1,1c-0.9-1.4-2.1-2.4-3.4-2.8C24,1,22.7,1.1,21.5,1.7c-0.1-0.6-0.1-1.1-0.2-1.3c-0.2-0.7-0.5-0.2-0.5,0.1
			c0,0.3-0.1,0.7-0.2,1.2c-1.2-0.6-2.5-0.8-3.7-0.4c-1.3,0.4-2.3,1.4-2.9,2.8c-0.5-0.2-0.9-0.3-1.3-0.3c-0.2-0.3-0.6-0.7-1.1-1.2
			c-0.3-0.3-0.6-0.1-0.4,0.5c0.1,0.2,0.1,0.4,0.2,0.6c-0.9,0.1-1.6,0.4-2.1,0.7C8.3,4.9,7.9,6,7.8,6.6c-0.1,0-0.1,0-0.1,0
			C6.9,6.8,5.9,7.1,5.2,8.1C5.1,8.1,5,8,5,8C3,6.7,3.9,8.4,4.7,9.1c-2.6,0.4-3.3,1.6-3.5,2.4c0,0.2-0.1,0.4-0.1,0.6
			c0,0.8,0.4,1.7,1.2,2.2c0.9,0.6,1.9,0.6,2.9,0c1.2,0.4,2.9,0.3,4.2-0.6c0.7,0.8,1.3,1.3,1.6,1.6c0.8,0.8,1.9,1.4,2.5,1.6
			c-0.6-0.2-1.5-0.5-2.5-0.3c-2.1,0.3-3.5-0.1-4.3-0.2c-1.5-0.1-3,0.1-3.7,0.1c-0.8,0-1.9,0.4-2.5,0.5c-0.6,0.1-0.6,0.5,0.3,0.7
			c0.8,0.2,2.3,0.4,2.8,0.5C4.7,18.7,7,19.1,8.5,19c1.1-0.1,2.2,0.5,2.5,0.5c0.5,0.2,1.9,0.5,2.5,0.5c0,0,0,0.8,0.1,1.2
			c-0.2,0.1-0.4,0.1-0.6,0.2c-0.6-0.4-3.3-1.5-6.7-0.1c-0.7-0.2-2.2-1.1-4.2-0.4c-2.5,0.8-2.1,3.1-1.3,4.2c1.1,1.4,3.2,1.1,3.8,0.4
			c1.3,0.9,2.7,0.6,3.7,0c0.7,0.4,3.9,1,6.3,0c0.3,0.2,1.7,1,3.4,0.1c1,0.6,2.6,0.6,3.5-0.1c0.3,0.3,1.2,0.6,3.2,0.6
			c2.4,0,2.9-0.4,3.2-0.7c0.5,0.2,1.8,0.9,3.5,0.2c0.9,0.6,2.6,0.5,3.6-0.1c1.7,0.8,4.9,0.4,5.7-0.1c1.4-1,0.7-3-0.8-3.9
			c-3.1-1.6-5.9-0.3-6.7,0c-0.9-0.6-2.8-1-4.8-0.6c0-0.2,0-0.5,0-0.8c0,0,0-0.1,0-0.1c0.4-0.1,0.9-0.5,2.1-0.6c1.5-0.1,5.2-0.1,7-1
			c1-0.5,4.6-1.2,5.1-1.5C43.1,16.7,43,16.5,42.7,16.3L42.7,16.3z"/>
	</g>
	<path d="M5.4,11.2c-0.7,0-1.3,0-1.8,0.6c-0.5,0.6-0.4,0.9-0.5,1c-0.1,0.1-0.5-0.1-0.5-0.4c0-1.4,1.7-1.9,2.7-1.8
		C5.6,10.6,5.7,11.2,5.4,11.2"/>
	<path d="M8.3,8.8C7.3,8.9,7,9.5,6.8,10c-0.1,0.2-0.7,0.1-0.6-0.4C6.5,8.4,7.9,8,8.4,8.2C8.6,8.2,8.5,8.8,8.3,8.8"/>
	<path d="M13,6c-1.9-0.7-2.8,0.7-3.1,1.8c0,0.2-0.7,0.1-0.6-0.4c0.2-1.2,1.3-2.8,3.9-2.2C13.5,5.3,13.3,6.1,13,6"/>
	<path d="M20,4.1c-1.7-1.2-3.1-0.2-3.8,0.6c-0.3,0.4-0.7-0.3-0.6-0.5c0.6-1,2.8-2.5,4.7-0.8C20.5,3.6,20.3,4.3,20,4.1"/>
	<path d="M27.1,5.7c-0.1,0.1-0.2-0.1-0.3-0.3c-1.5-2.4-4.3-1.8-5.1-0.7c-0.2,0.2-0.6-0.4-0.4-0.7c0.7-1.1,4.2-2.1,6.1,1
		C27.6,5.4,27.4,5.6,27.1,5.7"/>
	<path d="M31.5,7.3c-0.4-1.1-1.3-1.1-2.2-0.8c-0.5,0.1-0.3-0.6-0.2-0.7c0.9-0.3,2.5-0.5,3,1.1C32.2,7.4,31.6,7.6,31.5,7.3"/>
	<path d="M36.6,9.7c-0.8-1.4-2-1.4-3.1-1c-0.2,0.1-0.5-0.5-0.1-0.7c1-0.6,3.1-0.5,3.7,1.4C37.3,9.7,36.9,10.2,36.6,9.7"/>
	<path d="M39.9,12c-0.1,0.2-0.7,0.3-0.6,0c0.1-1.2-0.5-1.3-1.3-1.3c-0.3,0-0.3-0.6,0-0.7C39,9.8,40.2,10.6,39.9,12"/>
	<path d="M19.5,18.1c0,0.4-0.4,0.8-0.8,0.7c-0.4,0-0.8-0.4-0.7-0.8l0-0.1c-0.1-0.1-0.4-0.2-0.9,0.1c-0.3,0.2-0.6,0.1-0.1-0.3
		c0.5-0.4,1-0.7,1.4-0.7l0,0c0.7,0,1.6,0.1,2,0.3c0.2,0.1,0,0.9,0,0.9C20.1,18.1,19.8,17.9,19.5,18.1L19.5,18.1"/>
	<path d="M21.8,20.4c-0.1,0.4-1.6,0.5-1.8,0c-0.1-0.2-0.2-0.7-0.1-0.6c0.3,0.2,1.5,0.1,1.7,0c0.2,0,0.1-0.3,0.2-0.3
		C21.9,19.6,21.9,20,21.8,20.4"/>
	<path d="M25.1,18.2c-0.4-0.3-0.8-0.4-1-0.3l0,0.1c0,0.4-0.3,0.8-0.7,0.9c-0.4,0-0.8-0.3-0.9-0.7v0c-0.3-0.1-0.7,0.1-0.8,0
		c0,0-0.2-0.8,0-0.9c0.7-0.3,2.9-0.4,3.5,0.8C25.4,18.2,25.3,18.4,25.1,18.2"/>
	<path d="M0.1,29v21.9c0,7.2,1.8,12.2,5.7,15.8c3.8,3.5,9.6,5.3,15.2,6.6c5.8-1.4,11.3-3.1,15.2-6.6c3.9-3.5,5.7-8.5,5.7-15.8V29
		H0.1L0.1,29z M32.3,54.7v6.9c0,0-0.6-0.4-1.9,0c-1,0.3-1.4,0-1.4,0v-6.8c0.6,0.1,1.6-0.3,2.6-0.3C32.1,54.3,32.3,54.7,32.3,54.7
		L32.3,54.7z M36.6,54.7v6.8c0,0-0.4,0.3-1.4,0c-1.3-0.4-1.9,0-1.9,0v-6.9c0,0,0.2-0.3,0.7-0.3C35.1,54.4,36,54.8,36.6,54.7
		L36.6,54.7z M38.5,62.4v-7.1h-1v-1.4c-1,0.2-2.7-0.3-3.4-0.3c-0.8,0-1.2,0.4-1.2,0.4s-0.4-0.4-1.2-0.4c-0.7,0-2.4,0.6-3.4,0.3v1.4
		h-1v7.9h4.7v0.6h1.9v-0.6H38c-0.7,1-1.5,2-2.5,2.8c-2.8,2.5-6.8,4.1-10.9,5.3V51.4h16.3l0,0.7C40.7,56.6,40,59.8,38.5,62.4
		L38.5,62.4z M23.7,71.5L21,72.2l-2.7-0.7v-21H1.1v-4.8h17.2V30h5.4v15.7h17.2v4.8H23.7V71.5L23.7,71.5z M9.9,61.5v-6.9
		c0,0,0.2-0.3,0.7-0.3c1,0,2,0.4,2.6,0.3v6.8c0,0-0.4,0.3-1.4,0C10.4,61.1,9.9,61.5,9.9,61.5L9.9,61.5z M5.5,61.5v-6.8
		c0.6,0.1,1.6-0.3,2.6-0.3c0.5,0,0.7,0.3,0.7,0.3v6.9c0,0-0.6-0.4-1.9,0C5.9,61.8,5.5,61.5,5.5,61.5L5.5,61.5z M17.5,71.2
		c-4.2-1.2-8.3-2.9-10.9-5.3c-0.9-0.9-1.7-1.8-2.4-2.8h4.2v0.6h1.9v-0.6H15v-7.9h-1v-1.4c-1,0.2-2.7-0.3-3.4-0.3
		c-0.8,0-1.2,0.4-1.2,0.4s-0.4-0.4-1.2-0.4c-0.7,0-2.4,0.6-3.4,0.3v1.4h-1v7.1c-1.6-2.8-2.4-6.1-2.5-10.2l0-0.6h16.3V71.2L17.5,71.2
		z M1.1,30h16.3v14.8H1.1V30L1.1,30z M24.6,30h16.3v14.8H24.6V30L24.6,30z"/>
	<path d="M13.1,40.2c0,0-0.4,0.3-1.4,0c-1.3-0.4-1.9,0-1.9,0v-6.9c0,0,0.2-0.3,0.7-0.3c1,0,2,0.4,2.6,0.3V40.2L13.1,40.2z M8.8,40.2
		c0,0-0.6-0.4-1.9,0c-1,0.3-1.4,0-1.4,0v-6.8c0.6,0.1,1.6-0.3,2.6-0.3c0.5,0,0.7,0.3,0.7,0.3V40.2L8.8,40.2z M14,33.9v-1.4
		c-1,0.2-2.7-0.3-3.4-0.3c-0.8,0-1.2,0.4-1.2,0.4s-0.4-0.4-1.2-0.4c-0.7,0-2.4,0.6-3.4,0.3v1.4h-1v7.9h4.7v0.6h1.9v-0.6H15v-7.9H14
		L14,33.9z"/>
	<path d="M36.5,40.2c0,0-0.4,0.3-1.4,0c-1.3-0.4-1.9,0-1.9,0v-6.9c0,0,0.2-0.3,0.7-0.3c1,0,2,0.4,2.6,0.3V40.2L36.5,40.2z
		 M32.2,40.2c0,0-0.6-0.4-1.9,0c-1,0.3-1.4,0-1.4,0v-6.8c0.6,0.1,1.6-0.3,2.6-0.3c0.5,0,0.7,0.3,0.7,0.3V40.2L32.2,40.2z M37.5,33.9
		v-1.4c-1,0.2-2.7-0.3-3.4-0.3c-0.8,0-1.2,0.4-1.2,0.4s-0.4-0.4-1.2-0.4c-0.7,0-2.4,0.6-3.4,0.3v1.4h-1v7.9h4.7v0.6h1.9v-0.6h4.7
		v-7.9H37.5L37.5,33.9z"/>
	<g>
		<path d="M64.3,54c-0.2,0.8-0.6,2-0.9,2.5c-0.5,0.1-1.9,0.4-3.1,0.4c-4.1,0-5.9-2.9-5.9-5.5c0-3.5,2.7-5.8,6.4-5.8
			c1.3,0,2.5,0.4,2.9,0.4c0.1,0.9,0.2,1.6,0.3,2.5l-0.5,0.1c-0.4-1.8-1.4-2.5-3.2-2.5c-2.8,0-4.3,2.3-4.3,4.9c0,3.1,1.8,5.2,4.3,5.2
			c1.7,0,2.6-0.9,3.4-2.6L64.3,54z"/>
		<path d="M72.8,53c0,2.7-2,4-3.6,4c-2.3,0-3.6-1.8-3.6-3.7c0-2.7,2.1-4,3.6-4C71.2,49.3,72.8,51,72.8,53z M67.1,52.8
			c0,2.1,0.9,3.7,2.3,3.7c1,0,1.9-0.8,1.9-3c0-1.9-0.8-3.5-2.2-3.5C68,49.9,67.1,50.9,67.1,52.8z"/>
	</g>
	<g>
		<path d="M82.9,56.8v-0.4c1-0.1,1.2-0.2,1.2-1.3v-2.8c0-1.2-0.4-1.9-1.5-1.9c-0.6,0-1.2,0.3-1.9,0.9c0,0.2,0,0.4,0,0.7v3.2
			c0,1,0.1,1.1,1.1,1.2v0.4h-3.6v-0.4c1-0.1,1.2-0.2,1.2-1.3v-2.9c0-1.2-0.4-1.9-1.4-1.9c-0.7,0-1.3,0.4-1.8,0.9v3.9
			c0,1.1,0.1,1.2,0.9,1.3v0.4h-3.5v-0.4c1.1-0.1,1.2-0.2,1.2-1.3v-3.4c0-1.1,0-1.1-1-1.3V50c0.7-0.1,1.6-0.3,2.3-0.7v1.3
			c0.3-0.2,0.7-0.5,1.2-0.8c0.4-0.3,0.8-0.4,1.4-0.4c0.8,0,1.5,0.5,1.8,1.4c0.5-0.4,1-0.7,1.4-0.9c0.3-0.2,0.8-0.4,1.2-0.4
			c1.3,0,2.1,0.9,2.1,2.5v3.2c0,1.1,0.1,1.2,1.1,1.3v0.4H82.9z"/>
		<path d="M90.9,49.6c0.3-0.2,0.6-0.2,0.8-0.2c1.8,0,2.9,1.5,2.9,3.1c0,2.5-2,4.1-4.1,4.5c-0.5,0-0.9-0.2-1.1-0.3v2.2
			c0,1.3,0.1,1.3,1.4,1.5v0.4h-3.9v-0.4c1.1-0.1,1.2-0.2,1.2-1.3v-7.5c0-1.1-0.1-1.1-1.1-1.2v-0.4c0.7-0.1,1.6-0.4,2.4-0.7v1.3
			L90.9,49.6z M89.3,55.5c0.4,0.4,1,0.6,1.6,0.6c1.4,0,2.3-1.2,2.3-3.1c0-1.8-1-2.8-2.2-2.8c-0.5,0-1.2,0.4-1.7,0.7V55.5z"/>
		<path d="M103.6,56.4c-0.8,0.1-1.6,0.3-2.4,0.6l-0.1-0.1v-1.2c-0.4,0.3-0.8,0.6-1.2,0.9C99.3,56.8,99,57,98.5,57
			c-1.1,0-2.1-0.7-2.1-2.5v-3.3c0-0.9-0.1-1-1-1.2v-0.4c0.8,0,1.6-0.1,2.4-0.3c0,0.5,0,1.3,0,2.4v2.2c0,1.5,0.7,1.9,1.5,1.9
			c0.6,0,1.2-0.2,1.8-0.8v-3.9c0-0.9-0.1-1-1.3-1.2v-0.4c0.9,0,1.7-0.1,2.6-0.3V55c0,0.8,0.1,0.9,0.8,1l0.5,0V56.4z"/>
		<path d="M107.3,56.8c-0.3,0.2-0.5,0.2-0.7,0.2c-1,0-1.6-0.7-1.6-2v-4.8h-1.1l-0.1-0.2l0.4-0.5h0.8v-1.2l1.1-1.1l0.2,0v2.3h1.9
			c0.2,0.2,0.1,0.5-0.1,0.6h-1.8v4.3c0,1.3,0.5,1.6,1,1.6c0.4,0,0.8-0.2,1-0.3l0.2,0.4L107.3,56.8z"/>
	</g>
	<g>
		<path d="M115.1,55.4c-1,1.3-2.2,1.6-2.7,1.6c-2,0-3.2-1.7-3.2-3.5c0-1.1,0.4-2.2,1.1-2.9c0.7-0.8,1.6-1.2,2.4-1.2
			c1.4,0,2.5,1.2,2.5,2.5c0,0.3-0.1,0.5-0.4,0.5c-0.3,0-2.4,0.2-4.3,0.3c0,2.3,1.3,3.2,2.5,3.2c0.7,0,1.3-0.3,1.9-0.8L115.1,55.4z
			 M110.6,52c0.9,0,1.8,0,2.8,0c0.3,0,0.4-0.1,0.4-0.3c0-0.9-0.5-1.7-1.5-1.7C111.6,49.9,110.8,50.6,110.6,52z"/>
		<path d="M118.7,51.1c0.5-0.8,1.2-1.8,2-1.8c0.6,0,1,0.4,1,0.8c0,0.3-0.2,0.7-0.5,0.8c-0.2,0.1-0.3,0.1-0.4,0
			c-0.2-0.2-0.4-0.3-0.7-0.3c-0.4,0-1,0.5-1.3,1.4v3c0,1.1,0.1,1.2,1.4,1.3v0.4h-3.8v-0.4c1-0.1,1.1-0.2,1.1-1.3v-3.4
			c0-1.1-0.1-1.2-1-1.3V50c0.8-0.1,1.5-0.3,2.3-0.7L118.7,51.1L118.7,51.1z"/>
		<path d="M131.9,48.5c-0.3-1.1-0.7-2.2-2.2-2.2c-1.3,0-1.8,0.9-1.8,1.8c0,1.2,0.8,1.8,2.1,2.5c1.3,0.7,2.9,1.4,2.9,3.3
			c0,1.7-1.5,3.1-3.7,3.1c-0.7,0-1.2-0.1-1.6-0.2c-0.4-0.1-0.7-0.3-0.8-0.3c-0.1-0.3-0.3-1.8-0.4-2.6l0.5-0.1c0.3,1,1,2.7,2.7,2.7
			c1.2,0,2-0.8,2-2c0-1.2-0.9-1.8-2.2-2.5c-1.1-0.6-2.7-1.4-2.7-3.3c0-1.6,1.3-3,3.4-3c0.8,0,1.5,0.2,2.1,0.4
			c0.1,0.6,0.1,1.2,0.3,2.3L131.9,48.5z"/>
	</g>
	<g>
		<path d="M140.4,55.3c-0.7,1-1.8,1.7-2.8,1.7c-2.1,0-3.3-1.7-3.3-3.5c0-1.3,0.5-2.4,1.7-3.3c0.9-0.7,1.9-0.9,2.5-0.9
			c0.7,0,1.2,0.2,1.5,0.4c0.2,0.2,0.3,0.3,0.3,0.5c0,0.3-0.4,0.7-0.5,0.7c-0.1,0-0.2-0.1-0.3-0.2c-0.5-0.5-1.1-0.7-1.7-0.7
			c-1.1,0-2.1,0.9-2.1,2.7c0,2.3,1.6,3.1,2.5,3.1c0.7,0,1.3-0.2,2-0.9L140.4,55.3z"/>
		<path d="M141.2,56.8v-0.4c1-0.1,1.2-0.2,1.2-1.3v-3.4c0-1,0-1.1-1-1.3v-0.4c0.8-0.1,1.6-0.3,2.4-0.6V55c0,1.1,0.1,1.2,1.2,1.3v0.4
			H141.2z M142.1,47c0-0.5,0.4-0.9,0.8-0.9c0.5,0,0.8,0.4,0.8,0.9c0,0.4-0.4,0.8-0.8,0.8C142.5,47.9,142.1,47.5,142.1,47z"/>
		<path d="M151.7,55.4c-1,1.3-2.2,1.6-2.7,1.6c-2,0-3.2-1.7-3.2-3.5c0-1.1,0.4-2.2,1.1-2.9c0.7-0.8,1.6-1.2,2.4-1.2
			c1.4,0,2.5,1.2,2.5,2.5c0,0.3-0.1,0.5-0.4,0.5c-0.3,0-2.4,0.2-4.3,0.3c0,2.3,1.3,3.2,2.5,3.2c0.7,0,1.3-0.3,1.9-0.8L151.7,55.4z
			 M147.1,52c0.9,0,1.8,0,2.8,0c0.3,0,0.4-0.1,0.4-0.3c0-0.9-0.5-1.7-1.5-1.7C148.1,49.9,147.4,50.6,147.1,52z"/>
		<path d="M157.4,56.8v-0.4c1-0.1,1.1-0.2,1.1-1.4v-2.8c0-1.1-0.4-1.9-1.5-1.9c-0.7,0-1.3,0.4-1.8,0.8v3.9c0,1.1,0.1,1.2,1.1,1.3
			v0.4h-3.6v-0.4c1.1-0.1,1.2-0.2,1.2-1.3v-3.4c0-1.1-0.1-1.1-1-1.3V50c0.8-0.1,1.6-0.3,2.3-0.7v1.3c0.3-0.2,0.7-0.5,1.1-0.8
			c0.5-0.3,0.9-0.5,1.4-0.5c1.3,0,2.1,0.9,2.1,2.5v3.2c0,1.1,0.1,1.2,1,1.3v0.4H157.4z"/>
		<path d="M168,55.3c-0.7,1-1.8,1.7-2.8,1.7c-2.1,0-3.3-1.7-3.3-3.5c0-1.3,0.5-2.4,1.7-3.3c0.9-0.7,1.9-0.9,2.5-0.9
			c0.7,0,1.2,0.2,1.5,0.4c0.2,0.2,0.3,0.3,0.3,0.5c0,0.3-0.4,0.7-0.5,0.7c-0.1,0-0.2-0.1-0.3-0.2c-0.5-0.5-1.1-0.7-1.7-0.7
			c-1.1,0-2.1,0.9-2.1,2.7c0,2.3,1.6,3.1,2.5,3.1c0.7,0,1.3-0.2,2-0.9L168,55.3z"/>
		<path d="M174.8,55.4c-1,1.3-2.2,1.6-2.7,1.6c-2,0-3.2-1.7-3.2-3.5c0-1.1,0.4-2.2,1.1-2.9c0.7-0.8,1.6-1.2,2.4-1.2
			c1.4,0,2.5,1.2,2.5,2.5c0,0.3-0.1,0.5-0.4,0.5c-0.3,0-2.4,0.2-4.3,0.3c0,2.3,1.3,3.2,2.5,3.2c0.7,0,1.3-0.3,1.9-0.8L174.8,55.4z
			 M170.3,52c0.9,0,1.8,0,2.8,0c0.3,0,0.4-0.1,0.4-0.3c0-0.9-0.5-1.7-1.5-1.7C171.2,49.9,170.5,50.6,170.3,52z"/>
	</g>
	<g>
		<path d="M65.1,28.7c3.2,0.5,5.7,1.9,5.7,5.1c0,2.1-1.2,3.8-3.1,4.8c-1.6,0.9-3.7,1.3-6.3,1.3h-7.1V39c2.8-0.2,2.9-0.4,2.9-3.1V23
			c0-2.7-0.1-2.8-2.7-3v-0.9h8.2c2.4,0,3.8,0.4,4.8,1.1c1.2,0.8,1.8,2.2,1.8,3.6C69.4,26.8,66.9,28.1,65.1,28.7L65.1,28.7z
			 M61.5,28.3c3.5,0,5-1.4,5-4.1c0-2.2-1.2-4.1-4.3-4.1c-0.8,0-1.5,0.1-1.8,0.3C60.1,20.6,60,21,60,22v6.3H61.5z M60,35.9
			c0,2.3,0.6,2.9,2.7,2.9c2.6,0,5-1.4,5-4.7c0-3.3-2.2-4.7-6.1-4.7H60V35.9z"/>
		<path d="M93.8,40.1c-0.4,0-0.7,0-1.1,0c-2.4-0.1-3.7-0.8-5.2-2.9c-1.1-1.6-2.3-3.6-3.2-5.1c-0.5-0.9-1.1-1.3-2.8-1.3h-1v5.1
			c0,2.7,0.3,2.9,2.8,3.1v0.9h-8.4V39c2.6-0.2,2.9-0.4,2.9-3.1V23c0-2.7-0.3-2.8-2.8-3v-0.9H83c2.3,0,3.9,0.3,5.1,1.1
			c1.3,0.8,2.1,2.3,2.1,4.2c0,2.8-1.7,4.4-4.1,5.5c0.5,1.1,1.9,3.2,2.8,4.6c1.2,1.7,1.8,2.5,2.6,3.3c0.9,1,1.6,1.3,2.3,1.5
			L93.8,40.1z M82,29.7c1.6,0,2.7-0.3,3.5-0.9c1.2-1,1.8-2.2,1.8-4c0-3.5-2.3-4.7-4.7-4.7c-0.9,0-1.5,0.1-1.7,0.3
			c-0.2,0.2-0.4,0.5-0.4,1.4v7.9H82z"/>
		<path d="M117.8,29.2c0,6.9-4.8,11.1-10.7,11.1c-5.8,0-10.4-4.5-10.4-10.7c0-5.8,4-11.1,10.8-11.1
			C112.9,18.6,117.8,22.8,117.8,29.2z M100,28.8c0,6,3.3,10.4,7.8,10.4c3.6,0,6.8-3,6.8-9.1c0-6.8-3.5-10.3-7.7-10.3
			C103.2,19.7,100,22.8,100,28.8z"/>
	</g>
	<g>
		<path d="M150.9,20c-2.2,0.3-2.5,0.5-3.5,3.2c-0.7,2-2.7,8.1-5.3,17h-1c-1.8-5.1-4-11.3-5.6-15.9h-0.1c-1.8,5.6-3.6,10.8-5.2,15.9
			h-1c-1.7-5.8-3.5-11.4-5.2-17.1c-0.8-2.6-1.3-2.9-3.2-3.1v-0.9h7.8V20c-2.3,0.3-2.4,0.5-1.9,2.2c1.2,4.3,2.5,8.6,3.9,13.2h0.1
			c1.7-5.4,3.6-10.7,5.2-15.9h0.9c1.8,5.2,3.6,10.4,5.6,15.9h0.1c1.3-4.3,3.1-10.5,3.6-12.8c0.4-1.9,0.3-2.3-2.2-2.6v-0.9h7.1V20z"
			/>
		<path d="M176.2,20c-1.8,0.1-2.6,0.5-2.7,1.9c-0.1,1-0.2,2.4-0.2,5.4v12.9h-1l-13.6-16.8h-0.1v8c0,2.9,0.1,4.5,0.2,5.4
			c0.2,1.6,0.9,2,3.1,2.1v0.9h-7.6V39c1.9-0.1,2.7-0.5,2.8-2.1c0.1-1,0.2-2.5,0.2-5.5v-7c0-2.3-0.1-2.5-0.6-3.2
			c-0.6-0.8-1.3-1.1-2.8-1.2v-0.9h4.7L172,35.1h0.1v-7.9c0-2.9-0.1-4.4-0.2-5.3c-0.2-1.4-0.9-1.9-3.1-2v-0.9h7.6V20z"/>
	</g>
</g>
</svg>
